<?xml version="1.0" encoding="UTF-8"?>
<svg version="1.1" xmlns="http://www.w3.org/2000/svg" width="206" height="86">
<path d="M0 0 C67.98 0 135.96 0 206 0 C206 28.38 206 56.76 206 86 C138.02 86 70.04 86 0 86 C0 57.62 0 29.24 0 0 Z " fill="#F8F7F5" transform="translate(0,0)"/>
<path d="M0 0 C0.74330566 -0.00428513 1.48661133 -0.00857025 2.25244141 -0.01298523 C3.82258079 -0.01872326 5.39274675 -0.01923266 6.96289062 -0.01489258 C9.36634549 -0.01173014 11.7685721 -0.03520492 14.171875 -0.06054688 C15.69791511 -0.06281968 17.22395854 -0.06352345 18.75 -0.0625 C19.46881348 -0.07170975 20.18762695 -0.08091949 20.92822266 -0.09040833 C23.78762638 -0.06385684 25.87749938 -0.01432941 28.32885742 1.53833008 C29.66226032 3.78473276 29.74796056 5.25562329 29.73828125 7.86328125 C29.73763672 8.74242187 29.73699219 9.6215625 29.73632812 10.52734375 C29.72021484 11.44257813 29.70410156 12.3578125 29.6875 13.30078125 C29.69072266 14.21601562 29.69394531 15.13125 29.69726562 16.07421875 C29.64221939 22.89995217 29.64221939 22.89995217 27.375 26.30078125 C26.715 26.30078125 26.055 26.30078125 25.375 26.30078125 C24.88 28.77578125 24.88 28.77578125 24.375 31.30078125 C23.715 31.30078125 23.055 31.30078125 22.375 31.30078125 C21.88 29.32078125 21.88 29.32078125 21.375 27.30078125 C18.405 27.30078125 15.435 27.30078125 12.375 27.30078125 C12.40980469 27.98785156 12.44460937 28.67492187 12.48046875 29.3828125 C12.50753906 30.28386719 12.53460938 31.18492188 12.5625 32.11328125 C12.61470703 33.45326172 12.61470703 33.45326172 12.66796875 34.8203125 C12.375 37.30078125 12.375 37.30078125 11.33325195 38.9309082 C8.34413942 41.02190813 5.26840363 40.72894299 1.75 40.69921875 C0.6350415 40.70352402 0.6350415 40.70352402 -0.50244141 40.70791626 C-2.0725989 40.70995601 -3.64278186 40.70443225 -5.21289062 40.69189453 C-7.61646332 40.67583828 -10.01835461 40.69174477 -12.421875 40.7109375 C-13.94792038 40.70895505 -15.47396471 40.70511134 -17 40.69921875 C-17.71881348 40.70529144 -18.43762695 40.71136414 -19.17822266 40.71762085 C-22.02696838 40.67746093 -24.12981289 40.61186828 -26.57666016 39.07470703 C-27.9389791 36.76948826 -28.01273089 35.19312478 -28.0234375 32.51953125 C-28.02730469 31.59527344 -28.03117187 30.67101562 -28.03515625 29.71875 C-28.02355469 28.75582031 -28.01195312 27.79289062 -28 26.80078125 C-28.01160156 25.83785156 -28.02320313 24.87492187 -28.03515625 23.8828125 C-28.03128906 22.95855469 -28.02742188 22.03429687 -28.0234375 21.08203125 C-28.02005371 20.23705078 -28.01666992 19.39207031 -28.01318359 18.52148438 C-27.53884196 15.80789225 -26.83015184 14.91496788 -24.625 13.30078125 C-21.5234375 12.97265625 -21.5234375 12.97265625 -18 13.05078125 C-16.24816406 13.07398438 -16.24816406 13.07398438 -14.4609375 13.09765625 C-11.625 13.30078125 -11.625 13.30078125 -10.625 14.30078125 C-10.30262788 16.87975819 -10.11232696 19.46009946 -9.90625 22.05078125 C-9.86299335 24.26743477 -9.86299335 24.26743477 -8.625 25.30078125 C-7.06551458 25.45764374 -5.49957332 25.55154764 -3.93359375 25.6171875 C-2.98935547 25.65908203 -2.04511719 25.70097656 -1.07226562 25.74414062 C0.41756836 25.80311523 0.41756836 25.80311523 1.9375 25.86328125 C2.93458984 25.90646484 3.93167969 25.94964844 4.95898438 25.99414062 C7.43081111 26.10058292 9.9028866 26.20121884 12.375 26.30078125 C11.88 20.36078125 11.88 20.36078125 11.375 14.30078125 C4.115 13.97078125 -3.145 13.64078125 -10.625 13.30078125 C-10.625 9.67078125 -10.625 6.04078125 -10.625 2.30078125 C-6.97442297 -0.13293677 -4.22260582 -0.00535398 0 0 Z " fill="#070707" transform="translate(40.625,18.69921875)"/>
<path d="M0 0 C0.33 -0.99 0.66 -1.98 1 -3 C2.99954746 -3.04254356 5.00041636 -3.04080783 7 -3 C8 -2 8 -2 8.11352539 1.14282227 C8.11336633 2.53402697 8.10767506 3.92523761 8.09765625 5.31640625 C8.0962413 6.04746078 8.09482635 6.77851532 8.09336853 7.53172302 C8.08775408 9.87535632 8.07519922 12.21889539 8.0625 14.5625 C8.05748686 16.14778508 8.05292363 17.73307166 8.04882812 19.31835938 C8.03777997 23.2122761 8.02050572 27.10612205 8 31 C5.36 31 2.72 31 0 31 C-0.33 30.34 -0.66 29.68 -1 29 C-1.804375 29.495 -2.60875 29.99 -3.4375 30.5 C-8.67492109 32.70522993 -13.60745798 32.79751401 -19 31 C-19 30.34 -19 29.68 -19 29 C-19.5775 28.773125 -20.155 28.54625 -20.75 28.3125 C-24.56083774 26.08951132 -26.61929664 23.14211008 -28 19 C-28.79942758 13.39388763 -28.48961249 9.01856624 -25.5 4.125 C-18.43566823 -5.22777727 -9.96095668 -5.72755009 0 0 Z " fill="#0B0B0B" transform="translate(111,28)"/>
<path d="M0 0 C1.97422458 0.98885939 3.91270676 2.01427919 5.83203125 3.10546875 C6.16203125 2.11546875 6.49203125 1.12546875 6.83203125 0.10546875 C9.14203125 0.10546875 11.45203125 0.10546875 13.83203125 0.10546875 C13.83203125 11.32546875 13.83203125 22.54546875 13.83203125 34.10546875 C11.19203125 34.10546875 8.55203125 34.10546875 5.83203125 34.10546875 C5.50203125 33.44546875 5.17203125 32.78546875 4.83203125 32.10546875 C3.98640625 32.60046875 3.14078125 33.09546875 2.26953125 33.60546875 C-2.19818449 35.55501744 -5.57119096 36.01166137 -10.25 34.37890625 C-15.59275188 31.94047033 -18.54953068 29.01865728 -21.41796875 23.85546875 C-22.81943564 18.71675682 -22.76188529 13.99857772 -21.16796875 8.91796875 C-16.38927219 2.19792671 -8.42181677 -3.47494782 0 0 Z " fill="#080808" transform="translate(159.16796875,24.89453125)"/>
<path d="M0 0 C0.74330566 -0.00428513 1.48661133 -0.00857025 2.25244141 -0.01298523 C3.82258079 -0.01872326 5.39274675 -0.01923266 6.96289062 -0.01489258 C9.36634549 -0.01173014 11.7685721 -0.03520492 14.171875 -0.06054688 C15.69791511 -0.06281968 17.22395854 -0.06352345 18.75 -0.0625 C19.46881348 -0.07170975 20.18762695 -0.08091949 20.92822266 -0.09040833 C23.78762638 -0.06385684 25.87749938 -0.01432941 28.32885742 1.53833008 C29.66226032 3.78473276 29.74796056 5.25562329 29.73828125 7.86328125 C29.73763672 8.74242187 29.73699219 9.6215625 29.73632812 10.52734375 C29.72021484 11.44257813 29.70410156 12.3578125 29.6875 13.30078125 C29.69072266 14.21601562 29.69394531 15.13125 29.69726562 16.07421875 C29.64221939 22.89995217 29.64221939 22.89995217 27.375 26.30078125 C26.715 26.30078125 26.055 26.30078125 25.375 26.30078125 C24.88 28.77578125 24.88 28.77578125 24.375 31.30078125 C23.715 31.30078125 23.055 31.30078125 22.375 31.30078125 C22.0965625 30.34171875 22.0965625 30.34171875 21.8125 29.36328125 C20.43253944 26.87951912 20.43253944 26.87951912 16.75 26.55078125 C15.63625 26.46828125 14.5225 26.38578125 13.375 26.30078125 C12.715 22.34078125 12.055 18.38078125 11.375 14.30078125 C4.115 13.97078125 -3.145 13.64078125 -10.625 13.30078125 C-10.625 9.67078125 -10.625 6.04078125 -10.625 2.30078125 C-6.97442297 -0.13293677 -4.22260582 -0.00535398 0 0 Z " fill="#010101" transform="translate(40.625,18.69921875)"/>
<path d="M0 0 C2.97 0 5.94 0 9 0 C9 15.51 9 31.02 9 47 C6.03 47 3.06 47 0 47 C0 31.49 0 15.98 0 0 Z " fill="#171616" transform="translate(124,12)"/>
<path d="M0 0 C2.72411796 2.17929437 3.7573387 3.72429487 4.41015625 7.15625 C4.68084659 11.32071674 4.32760046 13.48217992 2.0625 17.0625 C-2.02322146 19.64734419 -5.28187386 19.97008201 -10 19 C-13.03215675 16.80168636 -13.81654398 15.55036806 -15 12 C-15.375 8.625 -15.375 8.625 -15 5 C-10.41868012 -0.54580827 -7.00322742 -1.9653326 0 0 Z " fill="#F0EFED" transform="translate(161,33)"/>
<path d="M0 0 C2.8125 1.4375 2.8125 1.4375 5 4 C6.31271288 8.31665093 6.52536703 11.76538747 4.75 15.9375 C1.9683649 19.21585565 0.37842708 19.96395933 -3.9375 20.375 C-7.05726674 20.30044675 -7.83097251 20.12568711 -10.4375 18.1875 C-13.26719342 14.22592922 -13.41041634 10.76082959 -13 6 C-9.58657773 0.58560605 -6.30664581 -0.63066458 0 0 Z " fill="#F1F0EE" transform="translate(105,32)"/>
<path d="M0 0 C2.97 0 5.94 0 9 0 C9 11.22 9 22.44 9 34 C6.03 34 3.06 34 0 34 C0 22.78 0 11.56 0 0 Z " fill="#191919" transform="translate(178,25)"/>
<path d="M0 0 C0.33 0 0.66 0 1 0 C1 2.97 1 5.94 1 9 C2.40894531 8.96519531 3.81789062 8.93039063 5.26953125 8.89453125 C7.11717559 8.86639453 8.96483281 8.83909425 10.8125 8.8125 C11.74126953 8.78736328 12.67003906 8.76222656 13.62695312 8.73632812 C14.9659668 8.72182617 14.9659668 8.72182617 16.33203125 8.70703125 C17.56530151 8.68346558 17.56530151 8.68346558 18.82348633 8.65942383 C21 9 21 9 22.7800293 10.1940918 C24.42667313 12.63159919 24.30100633 14.27417085 24.1875 17.1875 C24.16042969 18.08855469 24.13335937 18.98960938 24.10546875 19.91796875 C24.07066406 20.60503906 24.03585938 21.29210937 24 22 C20.54173658 22.05789006 17.08359707 22.09355821 13.625 22.125 C12.64015625 22.14175781 11.6553125 22.15851562 10.640625 22.17578125 C9.69960938 22.18222656 8.75859375 22.18867187 7.7890625 22.1953125 C6.48509521 22.21102295 6.48509521 22.21102295 5.15478516 22.22705078 C3 22 3 22 1 20 C-0.32967679 13.47705727 -0.12689841 6.62691697 0 0 Z " fill="#F1F0EE" transform="translate(29,23)"/>
<path d="M0 0 C2.64 0 5.28 0 8 0 C8 2.64 8 5.28 8 8 C5.36 8 2.72 8 0 8 C0 5.36 0 2.72 0 0 Z " fill="#070707" transform="translate(179,12)"/>
</svg>
